<svg width="24" height="24" viewBox="0 0 24 24" fill="none" xmlns="http://www.w3.org/2000/svg">
<path fill-rule="evenodd" clip-rule="evenodd" d="M16 11.5C16 14.5376 13.5376 17 10.5 17C7.46243 17 5 14.5376 5 11.5C5 8.46243 7.46243 6 10.5 6C13.5376 6 16 8.46243 16 11.5ZM15.3266 17.2408C14.0222 18.3386 12.3383 19 10.5 19C6.35786 19 3 15.6421 3 11.5C3 7.35786 6.35786 4 10.5 4C14.6421 4 18 7.35786 18 11.5C18 13.0821 17.5101 14.5498 16.6738 15.7596L20.2071 19.2929C20.5976 19.6834 20.5976 20.3166 20.2071 20.7071C19.8166 21.0976 19.1834 21.0976 18.7929 20.7071L15.3266 17.2408Z" fill="#00B4CC"/>
</svg>
